<svg xmlns="http://www.w3.org/2000/svg" xmlns:svg="http://www.w3.org/2000/svg" id="svg8" width="957.817" height="114.943" version="1.1" viewBox="0 0 253.422 30.412"><defs id="defs2"><marker id="Arrow1Send" orient="auto" refX="0" refY="0" style="overflow:visible"><path id="path1726" d="M 0,0 5,-5 -12.5,0 5,5 Z" style="fill:#000;fill-opacity:1;fill-rule:evenodd;stroke:#000;stroke-width:1.00000003pt;stroke-opacity:1" transform="matrix(-0.2,0,0,-0.2,-1.2,0)"/></marker><marker id="Arrow2Sstart" orient="auto" refX="0" refY="0" style="overflow:visible"><path id="path1741" style="fill:#000;fill-opacity:1;fill-rule:evenodd;stroke:#000;stroke-width:.625;stroke-linejoin:round;stroke-opacity:1" d="M 8.7185878,4.0337352 -2.2072895,0.01601326 8.7185884,-4.0017078 c -1.7454984,2.3720609 -1.7354408,5.6174519 -6e-7,8.035443 z" transform="matrix(0.3,0,0,0.3,-0.69,0)"/></marker><marker id="Arrow1Mstart" orient="auto" refX="0" refY="0" style="overflow:visible"><path id="path1717" d="M 0,0 5,-5 -12.5,0 5,5 Z" style="fill:#000;fill-opacity:1;fill-rule:evenodd;stroke:#000;stroke-width:1.00000003pt;stroke-opacity:1" transform="matrix(0.4,0,0,0.4,4,0)"/></marker><marker id="Arrow2Lstart" orient="auto" refX="0" refY="0" style="overflow:visible"><path id="path1729" style="fill:#000;fill-opacity:1;fill-rule:evenodd;stroke:#000;stroke-width:.625;stroke-linejoin:round;stroke-opacity:1" d="M 8.7185878,4.0337352 -2.2072895,0.01601326 8.7185884,-4.0017078 c -1.7454984,2.3720609 -1.7354408,5.6174519 -6e-7,8.035443 z" transform="matrix(1.1,0,0,1.1,1.1,0)"/></marker><marker id="Arrow2Mend" orient="auto" refX="0" refY="0" style="overflow:visible"><path id="path909" style="fill:#000;fill-opacity:1;fill-rule:evenodd;stroke:#000;stroke-width:.625;stroke-linejoin:round;stroke-opacity:1" d="M 8.7185878,4.0337352 -2.2072895,0.01601326 8.7185884,-4.0017078 c -1.7454984,2.3720609 -1.7354408,5.6174519 -6e-7,8.035443 z" transform="scale(-0.6)"/></marker><marker id="Arrow2Lend" orient="auto" refX="0" refY="0" style="overflow:visible"><path id="path903" style="fill:#000;fill-opacity:1;fill-rule:evenodd;stroke:#000;stroke-width:.625;stroke-linejoin:round;stroke-opacity:1" d="M 8.7185878,4.0337352 -2.2072895,0.01601326 8.7185884,-4.0017078 c -1.7454984,2.3720609 -1.7354408,5.6174519 -6e-7,8.035443 z" transform="matrix(-1.1,0,0,-1.1,-1.1,0)"/></marker><marker id="Arrow1Mend" orient="auto" refX="0" refY="0" style="overflow:visible"><path id="path891" d="M 0,0 5,-5 -12.5,0 5,5 Z" style="fill:#000;fill-opacity:1;fill-rule:evenodd;stroke:#000;stroke-width:1.00000003pt;stroke-opacity:1" transform="matrix(-0.4,0,0,-0.4,-4,0)"/></marker><marker id="Arrow1Lend" orient="auto" refX="0" refY="0" style="overflow:visible"><path id="path885" d="M 0,0 5,-5 -12.5,0 5,5 Z" style="fill:#000;fill-opacity:1;fill-rule:evenodd;stroke:#000;stroke-width:1.00000003pt;stroke-opacity:1" transform="matrix(-0.8,0,0,-0.8,-10,0)"/></marker><marker id="Arrow2Mend-5" orient="auto" refX="0" refY="0" style="overflow:visible"><path id="path909-3" style="fill:#000;fill-opacity:1;fill-rule:evenodd;stroke:#000;stroke-width:.625;stroke-linejoin:round;stroke-opacity:1" d="M 8.7185878,4.0337352 -2.2072895,0.01601326 8.7185884,-4.0017078 c -1.7454984,2.3720609 -1.7354408,5.6174519 -6e-7,8.035443 z" transform="scale(-0.6)"/></marker><marker id="Arrow2Mend-5-6" orient="auto" refX="0" refY="0" style="overflow:visible"><path id="path909-3-2" style="fill:#000;fill-opacity:1;fill-rule:evenodd;stroke:#000;stroke-width:.625;stroke-linejoin:round;stroke-opacity:1" d="M 8.7185878,4.0337352 -2.2072895,0.01601326 8.7185884,-4.0017078 c -1.7454984,2.3720609 -1.7354408,5.6174519 -6e-7,8.035443 z" transform="scale(-0.6)"/></marker><marker id="Arrow2Mend-5-1" orient="auto" refX="0" refY="0" style="overflow:visible"><path id="path909-3-27" style="fill:#000;fill-opacity:1;fill-rule:evenodd;stroke:#000;stroke-width:.625;stroke-linejoin:round;stroke-opacity:1" d="M 8.7185878,4.0337352 -2.2072895,0.01601326 8.7185884,-4.0017078 c -1.7454984,2.3720609 -1.7354408,5.6174519 -6e-7,8.035443 z" transform="scale(-0.6)"/></marker><marker id="Arrow2Mend-5-9" orient="auto" refX="0" refY="0" style="overflow:visible"><path id="path909-3-3" style="fill:#000;fill-opacity:1;fill-rule:evenodd;stroke:#000;stroke-width:.625;stroke-linejoin:round;stroke-opacity:1" d="M 8.7185878,4.0337352 -2.2072895,0.01601326 8.7185884,-4.0017078 c -1.7454984,2.3720609 -1.7354408,5.6174519 -6e-7,8.035443 z" transform="scale(-0.6)"/></marker><marker id="Arrow2Mend-5-9-0" orient="auto" refX="0" refY="0" style="overflow:visible"><path id="path909-3-3-6" style="fill:#000;fill-opacity:1;fill-rule:evenodd;stroke:#000;stroke-width:.625;stroke-linejoin:round;stroke-opacity:1" d="M 8.7185878,4.0337352 -2.2072895,0.01601326 8.7185884,-4.0017078 c -1.7454984,2.3720609 -1.7354408,5.6174519 -6e-7,8.035443 z" transform="scale(-0.6)"/></marker><marker id="Arrow2Mend-5-1-2" orient="auto" refX="0" refY="0" style="overflow:visible"><path id="path909-3-27-6" style="fill:#000;fill-opacity:1;fill-rule:evenodd;stroke:#000;stroke-width:.625;stroke-linejoin:round;stroke-opacity:1" d="M 8.7185878,4.0337352 -2.2072895,0.01601326 8.7185884,-4.0017078 c -1.7454984,2.3720609 -1.7354408,5.6174519 -6e-7,8.035443 z" transform="scale(-0.6)"/></marker><marker id="Arrow2Mend-5-6-1" orient="auto" refX="0" refY="0" style="overflow:visible"><path id="path909-3-2-8" style="fill:#000;fill-opacity:1;fill-rule:evenodd;stroke:#000;stroke-width:.625;stroke-linejoin:round;stroke-opacity:1" d="M 8.7185878,4.0337352 -2.2072895,0.01601326 8.7185884,-4.0017078 c -1.7454984,2.3720609 -1.7354408,5.6174519 -6e-7,8.035443 z" transform="scale(-0.6)"/></marker><marker id="Arrow2Mend-5-7" orient="auto" refX="0" refY="0" style="overflow:visible"><path id="path909-3-9" style="fill:#000;fill-opacity:1;fill-rule:evenodd;stroke:#000;stroke-width:.625;stroke-linejoin:round;stroke-opacity:1" d="M 8.7185878,4.0337352 -2.2072895,0.01601326 8.7185884,-4.0017078 c -1.7454984,2.3720609 -1.7354408,5.6174519 -6e-7,8.035443 z" transform="scale(-0.6)"/></marker><marker id="Arrow2Mend-2" orient="auto" refX="0" refY="0" style="overflow:visible"><path id="path909-0" style="fill:#000;fill-opacity:1;fill-rule:evenodd;stroke:#000;stroke-width:.625;stroke-linejoin:round;stroke-opacity:1" d="M 8.7185878,4.0337352 -2.2072895,0.01601326 8.7185884,-4.0017078 c -1.7454984,2.3720609 -1.7354408,5.6174519 -6e-7,8.035443 z" transform="scale(-0.6)"/></marker><marker id="Arrow2Mend-5-1-2-0" orient="auto" refX="0" refY="0" style="overflow:visible"><path id="path909-3-27-6-2" style="fill:#000;fill-opacity:1;fill-rule:evenodd;stroke:#000;stroke-width:.625;stroke-linejoin:round;stroke-opacity:1" d="M 8.7185878,4.0337352 -2.2072895,0.01601326 8.7185884,-4.0017078 c -1.7454984,2.3720609 -1.7354408,5.6174519 -6e-7,8.035443 z" transform="scale(-0.6)"/></marker><marker id="Arrow2Sstart-6" orient="auto" refX="0" refY="0" style="overflow:visible"><path id="path1741-7" style="fill:#000;fill-opacity:1;fill-rule:evenodd;stroke:#000;stroke-width:.625;stroke-linejoin:round;stroke-opacity:1" d="M 8.7185878,4.0337352 -2.2072895,0.01601326 8.7185884,-4.0017078 c -1.7454984,2.3720609 -1.7354408,5.6174519 -6e-7,8.035443 z" transform="matrix(0.3,0,0,0.3,-0.69,0)"/></marker></defs><metadata id="metadata5"/><g id="layer1" transform="translate(-31.237896,-181.00458)"><path style="fill:none;fill-rule:evenodd;stroke:#000;stroke-width:1.31396556;stroke-linecap:butt;stroke-linejoin:miter;stroke-miterlimit:4;stroke-dasharray:none;stroke-opacity:1" id="path815" d="M 254.19134,196.5 H 65"/><path style="fill:none;fill-rule:evenodd;stroke:#000;stroke-width:1;stroke-linecap:butt;stroke-linejoin:miter;stroke-miterlimit:4;stroke-dasharray:none;stroke-opacity:1" id="path2418" d="m 64.907482,181.4166 v 30"/><path style="fill:none;fill-rule:evenodd;stroke:#000;stroke-width:.26458332px;stroke-linecap:butt;stroke-linejoin:miter;stroke-opacity:1" id="path2420" d="m 64.907482,182.47494 v 0"/><path style="fill:none;fill-rule:evenodd;stroke:#000;stroke-width:1;stroke-linecap:butt;stroke-linejoin:miter;stroke-miterlimit:4;stroke-dasharray:none;stroke-opacity:1" id="path2422" d="m 64.907482,187.29653 -8.55262,-5.87993"/><path style="fill:none;fill-rule:evenodd;stroke:#000;stroke-width:1;stroke-linecap:butt;stroke-linejoin:miter;stroke-miterlimit:4;stroke-dasharray:none;stroke-opacity:1" id="path2422-2" d="m 65.407482,193.85415 -8.55262,-5.87993"/><path style="fill:none;fill-rule:evenodd;stroke:#000;stroke-width:1;stroke-linecap:butt;stroke-linejoin:miter;stroke-miterlimit:4;stroke-dasharray:none;stroke-opacity:1" id="path2422-28" d="m 64.656722,201.06634 -8.55262,-5.87993"/><path style="fill:none;fill-rule:evenodd;stroke:#000;stroke-width:1;stroke-linecap:butt;stroke-linejoin:miter;stroke-miterlimit:4;stroke-dasharray:none;stroke-opacity:1" id="path2422-9" d="m 65.202002,207.45397 -8.55262,-5.87993"/><text xml:space="preserve" style="font-style:normal;font-weight:400;line-height:125%;font-family:sans-serif;letter-spacing:0;word-spacing:0;baseline-shift:baseline;fill:#000;fill-opacity:1;stroke:none;stroke-width:.26458332px;stroke-linecap:butt;stroke-linejoin:miter;stroke-opacity:1" id="text5295" x="279.943" y="204.452"><tspan id="tspan5293" x="279.943" y="204.452" style="font-size:8.46666622px;baseline-shift:baseline;stroke-width:.26458332px">θ</tspan></text><path style="fill:none;fill-rule:evenodd;stroke:#000;stroke-width:1;stroke-linecap:butt;stroke-linejoin:miter;stroke-miterlimit:4;stroke-dasharray:none;stroke-opacity:1" id="path815-3" d="M 280.12381,207.24158 254.19134,196.5"/><path style="fill:none;fill-opacity:1;stroke:#000;stroke-width:1;stroke-miterlimit:4;stroke-dasharray:none;stroke-dashoffset:0;stroke-opacity:1;marker-start:url(#Arrow2Sstart-6)" id="path1684" d="m 47.128641,202.28734 c -2.34786,0 -4.51738,-1.25257 -5.69131,-3.28588 -1.17393,-2.03331 -1.17393,-4.53845 0,-6.57176 1.17393,-2.03331 3.34345,-3.28588 5.69131,-3.28588"/><circle style="fill:#000;fill-opacity:1;stroke:none;stroke-width:1;stroke-miterlimit:4;stroke-dasharray:none;stroke-dashoffset:0;stroke-opacity:1" id="path2408" cx="51.459" cy="196.361" r="1.459"/><path style="fill:none;fill-rule:evenodd;stroke:#000;stroke-width:1;stroke-linecap:butt;stroke-linejoin:miter;stroke-miterlimit:4;stroke-dasharray:2,2;stroke-dashoffset:0;stroke-opacity:1" id="path815-5" d="M 279.9251,196.5 H 254.19134"/><text xml:space="preserve" style="font-style:normal;font-weight:400;font-size:12px;line-height:125%;font-family:sans-serif;letter-spacing:0;word-spacing:0;baseline-shift:baseline;fill:#000;fill-opacity:1;stroke:none;stroke-width:.26458332px;stroke-linecap:butt;stroke-linejoin:miter;stroke-opacity:1" id="text5295-3" x="30.68" y="199.273"><tspan id="tspan5293-5" x="30.68" y="199.273" style="font-size:8.46666622px;baseline-shift:baseline;stroke-width:.26458332px">ω</tspan></text></g></svg>